<?xml version="1.0" encoding="UTF-8" standalone="no"?>
<svg
   xmlns:dc="http://purl.org/dc/elements/1.1/"
   xmlns:cc="http://creativecommons.org/ns#"
   xmlns:rdf="http://www.w3.org/1999/02/22-rdf-syntax-ns#"
   xmlns:svg="http://www.w3.org/2000/svg"
   xmlns="http://www.w3.org/2000/svg"
   version="1.1"
   id="svg4204"
   viewBox="0 0 512 512">
  <metadata
     id="metadata4232">
    <rdf:RDF>
      <cc:Work
         rdf:about="">
        <dc:format>image/svg+xml</dc:format>
        <dc:type
           rdf:resource="http://purl.org/dc/dcmitype/StillImage" />
        <dc:title>Willow Logo</dc:title>
      </cc:Work>
    </rdf:RDF>
  </metadata>
  <defs
     id="defs4230" />
  <title
     id="title4206">Willow Logo</title>
  <polygon
     transform="matrix(1.2130101,0,0,1.2130101,-54.530582,-113.38141)"
     style="fill:#913059;fill-opacity:1"
     id="polygon4208"
     points="255.778,512 107.644,470.877 74.633,100.62 437.367,100.62 404.321,470.819 " />
  <polygon
     transform="matrix(1.2130101,0,0,1.2130101,-54.530586,-113.38141)"
     style="fill:#b55b81;fill-opacity:1"
     id="polygon4210"
     points="256,480.523 376.03,447.246 404.27,130.894 256,130.894 " />
  <path
     id="rect4243"
     d="m 311.51151,100.80159 0,55.39808 21.43286,0 -15.64219,182.359 -33.57023,9.20182 0,-135.23641 -27.68928,0 L 255.95,413 369.39212,381.44279 394.95,100.61439 Z"
     style="fill:#ffffff;fill-opacity:1;stroke:none;stroke-width:2;stroke-linecap:round;stroke-linejoin:round;stroke-miterlimit:4;stroke-dasharray:none;stroke-opacity:1" />
  <path
     id="rect4243-5"
     d="m 200.7385,100.8015 0,55.39808 -21.50997,0 15.69846,182.359 33.691,9.20182 0,-135.2364 27.78887,0 L 256.5,413 142.64981,381.4428 117,100.61439 Z"
     style="fill:#ebebeb;fill-opacity:1;stroke:none;stroke-width:2;stroke-linecap:round;stroke-linejoin:round;stroke-miterlimit:4;stroke-dasharray:none;stroke-opacity:1" />
</svg>
